<?xml version="1.0" standalone="no"?>
<!DOCTYPE svg PUBLIC "-//W3C//DTD SVG 20010904//EN"
 "http://www.w3.org/TR/2001/REC-SVG-20010904/DTD/svg10.dtd">
<svg version="1.0" xmlns="http://www.w3.org/2000/svg"
 width="512.000000pt" height="512.000000pt" viewBox="0 0 512.000000 512.000000"
 preserveAspectRatio="xMidYMid meet">
<metadata>
Created by potrace 1.11, written by Peter Selinger 2001-2013
</metadata>
<g transform="translate(0.000000,512.000000) scale(0.100000,-0.100000)"
fill="#000000" stroke="none">
<path d="M2290 4899 c-434 -52 -852 -218 -1178 -468 -51 -39 -105 -77 -120
-85 -38 -20 -245 -235 -324 -336 -411 -532 -584 -1214 -472 -1870 82 -481 303
-914 649 -1269 250 -256 518 -436 846 -565 419 -165 935 -206 1374 -110 895
197 1608 886 1824 1764 161 656 40 1353 -332 1910 -98 147 -300 384 -321 377
-6 -2 -40 23 -76 56 -261 238 -619 432 -972 526 -219 59 -331 73 -588 77 -129
1 -269 -2 -310 -7z m-463 -650 c116 -16 247 -62 348 -121 102 -61 243 -195
290 -276 24 -42 34 -51 50 -47 11 4 45 14 75 23 78 23 301 23 390 -1 153 -41
329 -154 417 -269 45 -58 114 -183 132 -238 11 -34 14 -36 93 -54 612 -136
868 -853 486 -1360 -120 -160 -313 -273 -516 -305 -42 -7 -226 -11 -451 -11
l-381 0 -15 -37 c-9 -21 -46 -105 -84 -188 l-68 -150 176 -3 175 -2 -94 -95
-95 -95 -117 0 c-65 0 -118 3 -118 6 0 3 5 14 10 25 10 18 6 19 -140 19 -140
0 -151 1 -146 18 32 101 146 487 146 494 0 4 -220 8 -488 8 -454 0 -494 1
-566 20 -186 47 -344 176 -430 350 -25 52 -53 127 -61 165 -41 194 7 401 129
562 l47 61 -57 84 c-66 96 -94 156 -131 277 -23 75 -26 104 -27 236 -1 125 3
163 21 230 45 166 134 316 251 427 88 83 143 120 245 168 164 77 332 103 504
79z m1521 -2817 c2 -7 -5 -12 -17 -12 -14 0 -19 5 -14 15 6 17 25 15 31 -3z
m10 -29 c-10 -2 -28 -2 -40 0 -13 2 -5 4 17 4 22 1 32 -1 23 -4z"/>
</g>
</svg>
